# xmcd
#
# Track frame offsets: 
#        150
#        15804
#        33610
#        49093
#        67406
#        84913
#        100439
#
# Disc length: 1545 seconds
#
# Revision: 1
# Processed by: cddbd v1.5.2PL0 Copyright (c) Steve Scherf et al.
# Submitted via: ExactAudioCopy v1.1
#
DISCID=54060707
DTITLE=????(TTS) - Twinkle
DYEAR=2012
DGENRE=Dance
TTITLE0=Twinkle
TTITLE1=Baby Steps
TTITLE2=Omg(oh My God)
TTITLE3=Library
TTITLE4=??(good-bye, Hello)
TTITLE5=?????(love Sick)
TTITLE6=?????(checkmate)
EXTD=
EXTT0=
EXTT1=
EXTT2=
EXTT3=
EXTT4=
EXTT5=
EXTT6=
PLAYORDER=
